# xmcd
#
# Track frame offsets:
#	150
#	12975
#	25340
#	36225
#	47640
#	60755
#	73485
#	86525
#	96845
#	108517
#	119577
#	130362
#
# Disc length: 1897
#
# Revision: 2
# Processed by: cddbd v1.5.1PL0 Copyright (c) Steve Scherf et al.
# Submitted via: dBpowerAMP V4.0
# Normalized: r1:TSWAP
#
DISCID=a507670c
DTITLE=Various Artist - Classic Country - Country Roots
DYEAR=1900
DGENRE=Country
TTITLE0=Patsy Cline - I Fall to Pieces
TTITLE1=Johnny Cash - I Walk the Line
TTITLE2=Faron Young - Hello Walls
TTITLE3=Don Gibson - Oh Lonesome Me
TTITLE4=Kitty Wells - Makin' Believe
TTITLE5=Bill Anderson - Still
TTITLE6=Bobby Helms - Fraulein
TTITLE7=Jimmy "C" Newman - A Fallen Star
TTITLE8=Jack Greene - There Goes My Everything
TTITLE9=Roger Miller - King of the Road
TTITLE10=The Everly Brothers - Bye Bye Love
TTITLE11=Brenda Lee - I'm Sorry
EXTD=
EXTT0=
EXTT1=
EXTT2=
EXTT3=
EXTT4=
EXTT5=
EXTT6=
EXTT7=
EXTT8=
EXTT9=
EXTT10=
EXTT11=
PLAYORDER=
